<?xml version="1.0" encoding="UTF-8"?><svg id="a" xmlns="http://www.w3.org/2000/svg" width="146.67" height="37.75" viewBox="0 0 146.67 37.75">
<title>McLaren_Mastercard_Formula_1-logo - brandlogos.net</title><path d="M77.2,17.76c0,.59-.26,1.01-1.06,1.01h-5.12c-.66,0-1.03-.19-1.03-.8s.26-.92,1.03-.92h6.18v.7ZM99.77,15.34v-.68c0-.61.26-1.01,1.08-1.01h5.12c.7,0,1.06.21,1.06.87,0,.56-.28.82-1.01.82h-6.25ZM113.21,10.81v10.81h5.17v-7.86h4.23c1.43,0,2.16.45,2.16,1.83v6.04h5.17v-6.47c0-3.03-1.67-4.35-6.39-4.35h-10.34ZM100.48,10.81c-4.16,0-5.83,1.39-5.83,4.51v2.14c0,2.7,1.67,4.16,5.43,4.16h10.95v-2.84h-9.92c-.99,0-1.32-.28-1.32-1.01v-.45h7.82c2.7,0,4.23-.85,4.23-2.87v-.49c0-1.83-.92-3.15-5.5-3.15h-5.87ZM83.87,21.61h5.17v-7.09c0-.47.19-.78.82-.78h4.02v-2.94h-5.76c-3.08,0-4.25,1.15-4.25,3.08v7.73ZM66.2,10.81v2.85h9.71c.96,0,1.29.33,1.29,1.03v.41h-7.8c-3.27,0-4.25,1.35-4.25,3.06v.42c0,2.37,1.9,3.03,5.64,3.03h5.73c4.06,0,5.83-.92,5.83-4.11v-2.51c0-2.7-1.67-4.18-5.45-4.18h-10.69ZM35.29,16.82c0,3.41,1.74,4.79,6.23,4.79h9.84v-2.91h-9.09c-1.08,0-1.81-.49-1.81-2.04v-.94c0-1.39.68-1.97,1.79-1.97h9.11v-2.94h-9.98c-4.42,0-6.08,1.86-6.08,4.82v1.2ZM52.91,9.09v12.52h11.23v-2.94h-6.06v-9.59h-5.17ZM20.65,16.09v-7h-2.91c-1.81,0-2.84.72-3.92,1.57L0,21.61h6.23l9.16-7.42v7.42h4.3l8.88-7.47v7.47h5.26v-12.52h-2.87c-1.55,0-2.63.63-3.71,1.53l-6.6,5.47Z"/><path d="M142.37,0c-2.88,0-6.95.86-11.35,2.47-3.94,1.43-7.71,3.29-11.24,5.54,2.3-.94,6.84-2,10.58-2,5.05,0,8.65,1.94,3.34,8.72,15.67-10.26,15.24-14.72,8.68-14.72Z" style="fill:#ff8000;"/><path d="M89.47,32.59c.69,0,1.2.13,1.53.38.33.25.49.63.49,1.14,0,.21-.04.42-.13.61-.08.17-.2.32-.35.44-.14.12-.3.22-.47.29l1.49,2.21h-1.2l-1.21-1.95h-.58v1.95h-1.07v-5.08h1.48ZM89.39,33.47h-.33v1.37h.35c.36,0,.61-.06.76-.18.08-.06.14-.14.18-.23.04-.09.06-.19.05-.29,0-.24-.08-.41-.25-.52-.17-.1-.42-.15-.77-.15h0Z"/><path d="M99.12,37.67l-.37-1.21h-1.85l-.37,1.21h-1.16l1.79-5.1h1.32l1.8,5.1h-1.16ZM98.5,35.56l-.37-1.18c-.02-.08-.05-.18-.09-.31-.04-.13-.08-.25-.11-.38-.04-.13-.07-.24-.09-.33-.02.09-.06.21-.1.35-.04.14-.08.27-.11.4-.04.13-.06.21-.08.27l-.36,1.18h1.32Z"/><path d="M105.85,33.42c-.18,0-.37.03-.53.11-.17.08-.31.2-.41.35-.22.31-.33.73-.33,1.27,0,.54.1.95.3,1.26.2.3.53.44.97.44.21,0,.42-.02.62-.07.23-.05.46-.12.68-.2v.9c-.21.09-.44.15-.66.2-.24.04-.49.07-.73.06-.53,0-.96-.11-1.29-.32-.34-.22-.6-.54-.75-.91-.17-.44-.25-.9-.24-1.37,0-.47.09-.93.28-1.36.17-.38.45-.7.81-.92.39-.23.84-.35,1.3-.34.26,0,.51.03.76.1.25.06.49.15.72.26l-.35.88c-.19-.09-.38-.17-.57-.23-.18-.06-.37-.1-.56-.1Z"/><path d="M113.2,37.67h-2.31v-.61l.62-.28v-3.29l-.62-.28v-.61h2.31v.61l-.62.28v3.29l.62.28v.61Z"/><path d="M121.49,37.67h-1.37l-2.21-3.84h-.03c0,.24.02.48.03.72.01.24.02.48.03.72v2.39h-.96v-5.08h1.36l2.21,3.81h.02l-.03-.7c0-.23-.02-.47-.02-.7v-2.4h.97v5.08Z"/><path d="M127.57,34.82h2.01v2.64c-.27.09-.55.16-.83.21-.32.05-.65.08-.98.08-.76,0-1.34-.22-1.75-.67-.41-.45-.61-1.1-.61-1.95-.01-.48.1-.95.31-1.38.2-.39.51-.7.9-.9.45-.23.95-.34,1.45-.32.27,0,.54.03.8.09.24.05.48.13.71.23l-.36.86c-.17-.09-.35-.15-.53-.2-.2-.05-.41-.08-.62-.08-.29,0-.57.07-.81.21-.23.15-.42.36-.53.6-.13.29-.2.6-.19.91,0,.3.04.6.13.88.08.25.23.47.45.62.22.15.48.22.74.2.13,0,.26,0,.38-.02.1-.01.21-.03.3-.05v-1.07h-.96v-.9Z"/></svg>