<?xml version="1.0" encoding="UTF-8"?><svg id="a" xmlns="http://www.w3.org/2000/svg" width="1020" height="332.8" xmlns:xlink="http://www.w3.org/1999/xlink" viewBox="0 0 1020 332.8">
<title>Visa Cash App Racing Bulls Formula One Team logo - Brandlogos.net</title><defs><clipPath id="b"><rect width="1020" height="332.8" style="fill:none;"/></clipPath><clipPath id="c"><rect width="1020" height="332.8" style="fill:none;"/></clipPath><clipPath id="d"><rect width="1020" height="332.8" style="fill:none;"/></clipPath><clipPath id="e"><rect width="1020" height="332.8" style="fill:none;"/></clipPath><clipPath id="f"><rect width="1020" height="332.8" style="fill:none;"/></clipPath><clipPath id="g"><rect width="1020" height="332.8" style="fill:none;"/></clipPath><clipPath id="h"><rect width="1020" height="332.8" style="fill:none;"/></clipPath><clipPath id="i"><rect width="1020" height="332.8" style="fill:none;"/></clipPath><clipPath id="j"><rect width="1020" height="332.8" style="fill:none;"/></clipPath><clipPath id="k"><rect width="1020" height="332.8" style="fill:none;"/></clipPath><clipPath id="l"><rect width="1020" height="332.8" style="fill:none;"/></clipPath><clipPath id="m"><rect width="1020" height="332.8" style="fill:none;"/></clipPath><clipPath id="n"><rect width="1020" height="332.8" style="fill:none;"/></clipPath><clipPath id="o"><rect width="1020" height="332.8" style="fill:none;"/></clipPath></defs><g style="clip-path:url(#b);"><path d="M782.4,165.4h-44.7c-1.7,0-3.1-1.4-3.1-3.1v-46.7c0-1.7,1.4-3.1,3.1-3.1h44.7c1.7,0,3.1,1.4,3.1,3.1v46.8c0,1.6-1.4,3-3.1,3" style="fill:#fff;"/></g><g style="clip-path:url(#c);"><polygon points="126 185.4 145.7 93.5 121.9 93.5 102.2 185.4 126 185.4" style="fill:#1334c9;"/></g><g style="clip-path:url(#d);"><path d="M294.2,185.4l-19.2-91.9h-20.3c-4.6,0-8.4,2.7-10.1,6.7l-35.7,85.2h25l5-13.7h30.5l2.9,13.7h21.9ZM245.7,152.9l12.5-34.5,7.2,34.5h-19.7Z" style="fill:#1334c9;"/></g><g style="clip-path:url(#e);"><path d="M176.8,119c.1-3.3,3.2-6.8,10.1-7.7,3.4-.4,12.8-.8,23.4,4.1l4.2-19.5c-5.7-2.1-13.1-4.1-22.2-4.1-23.5,0-40,12.5-40.2,30.4-.2,13.2,11.8,20.6,20.8,25,9.3,4.5,12.4,7.4,12.3,11.4-.1,6.2-7.4,8.9-14.2,9-11.9.2-18.9-3.2-24.4-5.8l-4.3,20.1c5.6,2.5,15.8,4.8,26.4,4.9,25,0,41.3-12.3,41.4-31.4.1-24.2-33.5-25.6-33.3-36.4" style="fill:#1334c9;"/></g><g style="clip-path:url(#f);"><path d="M86.7,93.5l-24.7,62.6-10-53.2c-1.2-5.9-5.8-9.4-11-9.4H.6l-.6,2.7c8.3,1.8,17.7,4.7,23.4,7.8,3.5,1.9,4.5,3.6,5.6,8.1l19,73.3h25.1l38.5-91.9h-24.9Z" style="fill:#1334c9;"/></g><g style="clip-path:url(#g);"><path d="M845.6,146.3c-.5-.3-1.2-.2-1.6.4-1.7,2.6-4.7,4.2-7.9,4.1-6,0-9.7-4.8-9.7-11.6s3.7-11.5,9.7-11.5c3.1-.1,6.1,1.4,7.8,3.9.4.5,1.1.6,1.6.3l2.8-1.7h.1c.5-.4.7-1.2.3-1.7-2.9-4.1-7.7-6.4-12.6-6.3-9.4,0-15.9,6.8-15.9,17s6.5,17.1,16,17.1c5.1.1,9.9-2.3,12.7-6.6,0,0,0-.1.1-.1.3-.6.1-1.3-.4-1.6l-3-1.7Z"/></g><g style="clip-path:url(#h);"><path d="M862.3,130.8c-3.2,0-6.3.8-9.2,2.3-.6.3-.8,1-.5,1.6l1,2.1h0c.3.6,1,.8,1.6.5,2-1,4.2-1.6,6.5-1.7,2,0,4.3.5,4.3,2.6,0,2.3-3,2.5-6.5,3-3.3.5-8.6,1.5-8.6,7.4,0,4.8,3.4,7.5,8.4,7.5,3.4,0,5.4-1.2,6.9-3.1v1.4c0,.7.5,1.2,1.2,1.2h3.1c.7,0,1.2-.5,1.2-1.2v-15.6c.3-5.7-3.7-8-9.4-8M866.2,146.4c0,3.6-2.6,5.2-5.4,5.2-2.2,0-3.8-1-3.8-3.2s1.8-2.9,3.9-3.3c2.2-.4,4.2-.7,5.3-1.5v2.8Z"/></g><g style="clip-path:url(#i);"><path d="M886.5,140.5c-2.7-.5-5.4-.8-5.4-2.8,0-1.7,1.9-2.4,4.1-2.4s4.5.7,6.3,2c.5.4,1.2.3,1.6-.2l1.5-1.8.1-.1c.4-.5.3-1.3-.2-1.7-2.6-2-5.8-3-9.1-3-5.2,0-9.8,2.2-9.8,7.6,0,5.1,4.3,6.6,8.8,7.4,4.2.7,6,1.1,6,2.9,0,2-1.9,2.9-4.5,2.9-2.5.1-4.9-.7-6.9-2.2-.5-.4-1.2-.3-1.7.2l-1.6,1.9h0c-.4.5-.3,1.3.2,1.7,2.8,2.2,6.2,3.3,9.7,3.2,6.4,0,10.5-3.1,10.5-8.2-.2-4.7-3.9-6.3-9.6-7.4"/></g><g style="clip-path:url(#j);"><path d="M912.7,130.8c-2.9-.1-5.7,1.3-7.4,3.6v-10.4c0-.7-.5-1.2-1.2-1.2h-3.4c-.7,0-1.2.5-1.2,1.2v30.4c0,.7.5,1.2,1.2,1.2h3.4c.7,0,1.2-.5,1.2-1.2v-12.5c0-3.7,2.4-5.9,5.5-5.9,3.3,0,4.1,2.3,4.1,4.9v13.5c0,.7.5,1.2,1.2,1.2h3.4c.7,0,1.2-.5,1.2-1.2v-14.8c0-5.2-2.9-8.8-8-8.8"/></g><g style="clip-path:url(#k);"><path d="M952.8,122.8h-5.6c-.5,0-.9.3-1.1.7l-11.3,30.4c-.1.1-.1.3-.1.4,0,.7.5,1.2,1.2,1.2h4c.5,0,1-.3,1.1-.8l2.5-7.3h12.5l2.5,7.3c.2.5.6.8,1.1.8h4.3c.1,0,.3,0,.4-.1.6-.2.9-.9.7-1.5l-11.2-30.4c0-.4-.5-.7-1-.7M945.2,142.4l4.8-14.3,4.6,14.3h-9.4Z"/></g><g style="clip-path:url(#l);"><path d="M981.3,130.8c-2.9-.1-5.8,1.2-7.5,3.6v-2c0-.7-.6-1.2-1.2-1.2h-3.4c-.7,0-1.2.5-1.2,1.2v30c0,.7.5,1.2,1.2,1.2h3.4c.7,0,1.2-.5,1.2-1.2v-9.9c1.7,2.4,4.5,3.8,7.5,3.7,6.6,0,10.9-5.5,10.9-12.7s-4.3-12.7-10.9-12.7M980.1,151.1c-4.1,0-6.2-3.4-6.2-7.6s2.2-7.5,6.2-7.5,6,3.4,6,7.5-2,7.6-6,7.6"/></g><g style="clip-path:url(#m);"><path d="M1020,143.4c0-7.2-4.3-12.6-10.9-12.6-2.9-.1-5.7,1.2-7.5,3.6v-1.9h0c0-.7-.5-1.2-1.2-1.2h-3.4c-.7,0-1.2.5-1.2,1.2v29.9c0,.7.5,1.2,1.2,1.2h3.4c.7,0,1.2-.5,1.2-1.2v-9.9c1.7,2.4,4.5,3.8,7.5,3.7,6.6-.1,10.9-5.6,10.9-12.8M1007.9,151.1c-4.1,0-6.3-3.4-6.3-7.6s2.2-7.5,6.3-7.5,6,3.4,6,7.5-2,7.6-6,7.6"/></g><g style="clip-path:url(#n);"><path d="M783.9,108.2c-3.5-1.1-6.7-1.1-13.2-1.1h-19.6c-6.5,0-9.7,0-13.2,1.1-3.8,1.4-6.8,4.4-8.2,8.2-1.1,3.5-1.1,6.7-1.1,13.2v19.6c0,6.5,0,9.7,1.1,13.2,1.4,3.8,4.4,6.8,8.2,8.2,3.5,1.1,6.7,1.1,13.2,1.1h19.6c6.5,0,9.7,0,13.2-1.1,3.8-1.4,6.8-4.4,8.2-8.2,1.1-3.5,1.1-6.7,1.1-13.2v-19.5c0-6.5,0-9.7-1.1-13.2-1.3-3.9-4.4-6.9-8.2-8.3M775.5,128.9l-2.5,2.5c-.5.5-1.3.5-1.8,0-2.4-2.1-5.5-3.2-8.7-3.2-2.6,0-5.2.9-5.2,3.3s2.8,3.2,6,4.4c5.7,1.9,10.3,4.3,10.3,9.8,0,6-4.7,10.2-12.4,10.6l-.7,3.2c-.1.6-.7,1-1.3,1h-5c-.7-.1-1.2-.9-1-1.6l.7-3.4c-2.9-.7-5.6-2.2-7.7-4.2h0c-.5-.5-.5-1.3,0-1.8l2.7-2.6c.5-.5,1.3-.5,1.8,0,2.5,2.3,5.7,3.6,9.1,3.6s5.9-1.5,5.9-3.8-2.4-3-6.9-4.6c-4.7-1.7-9.2-4.1-9.2-9.7,0-6.5,5.4-9.7,11.8-10l.7-3.3c.1-.6.7-1,1.3-1h5.1c.7.1,1.2.8,1,1.5l-.7,3.7c2.4.8,4.7,2.1,6.7,3.7,0,0,.1,0,.1.1.4.5.4,1.3-.1,1.8" style="fill:#48ad47;"/></g><g style="clip-path:url(#o);"><path d="M389,175.6c-.8.5-1.6.9-2.4,1.4v-21.5c1.7-1.7,3.2-3.5,4.6-5.3,7.1-9.5,6.3-24.3-1.6-33-.9-1-1.9-1.9-3-2.8V0h70.1C488.6,0,514.5,25.4,514.5,56.7c0,26.7-18.7,49-44,55.1l14.1,20c-.3.3-.6.5-.8.8-11.9.1-21.3,3.5-30.3,10.8l-.3.2-.2.2c-1.2,1.1-2.3,2.1-3.5,3.1l-11.5-17.8v-45.9h9.5c15.1,0,27.3-11.2,27.3-25.1s-11.4-25.1-26.5-25.1h-20.8v122c-1.8.3-3.5.6-6.3,1.3-9.6,2.2-18.3,9-25.3,14.4-3.8,3-4.9,3.7-5.2,3.9-.6.3-1.2.7-1.7,1M540.2,101.9l.4-.2.5-.2c4.9-2.1,10.6-3.2,16.5-3.2,4.3,0,8.6.7,12.3,1.9V33h25.6c11.2,0,20.3,10.3,20.3,21.5s-9.1,20.3-20.3,20.3h-13.3v31.1c1,.7,2.1,1.4,3.4,2.3l.4.3,1,.8h19.7c13.6,0,23.9,11,23.9,24.6-.2,4.7-1.3,8.9-3.2,12.5,5.7,6.9,12.8,16.1,17,22.9l.2.3c1.8,3.1,3.5,7.2,4.6,10.9,14.1-10.1,23.2-25.9,23.2-43.6,0-21.9-7.7-37.4-33.5-49.4,10.5-9.8,16.9-22.9,16.9-37.3,0-13.1-5-25.1-13.8-34.5C632.9,5.6,616.7,0,594.8,0h-65.8v108.7c1.1-.7,2.3-1.4,3.5-2.2,2.4-1.5,4.9-3.2,7.7-4.6M518.2,263.8c1.1,2.4,2.1,4.6,3.2,4.9.5.1,1,.2,1.6.2,2.5,0,6.1-1.4,8.6-3.4,1.4-1.2,1-2,.3-3.1-.2-.3-.4-.7-.7-1.2-.7-1.3-1.1-2.7-1.4-3.9-.7-2.5-1.3-4.6-3.9-4.2-3.8.5-7.4.8-11.5.8-.1,0-1.3,0-1.7.9-.5,1,.6,2,1.7,3,.6.6,1.3,1.2,1.7,1.8.6,1.1,1.4,2.7,2.1,4.2M329.2,272.1c-.1,0-.3,0-.4.1-2.2.9-4.7,3.7-4.8,5.4-.5,7.3-.8,8.1-2.7,10.3-.6.6-.9,2.1-.3,2.7s7.7,2.8,8.5,2.8h.2c.6-.2,1.2-1.8,2.6-6.9.8-2.7,1.7-5.8,2.7-8.6.1-.2.1-.4-.6-1.4-.8-1.2-3.6-4.4-5.2-4.4M675.2,261.8c-.1.7-.6,1.2-1.4,1.3-.9.2-1.8.3-2.8.3-7.3,0-15-5.8-18-11.2-4-7.3-7.3-11.6-13.2-13.7h0c.6,1.2,1.3,2.3,2.1,3.4.5.6.9,1.3,1.3,1.9,1.9,3.2,4.6,7.9,6,12.6,1.3,4.4,6,7.7,10.3,10.4l5.4,2.9c1.1.5,1.7,1.3,1.6,2-.1.6-.3,1.1-1.3,1.4l-1,.1h-1.1c-9.7,0-17.5-3.3-23.8-10.1-1.9-2.1-3.8-3.2-5.7-3.2-4.3,3.8-8.7,7.6-14.6,8-7.3-1.2-13.4-.8-18,1.2-.8.3-1.5.5-2.3.8-4.2,1.5-8.5,3.1-13.3,3.3-2.6,0-5.9-1.3-6.8-3.9-.3-1.1-.2-2.1-.6-3.4-.6-2.3-1.1-4.7.2-6.9l3.6-5.4c0-.5-.4-.9-.9-1s-1.1.2-1.7.4c-.6.2-1.1.5-1.6.5-1.6-.1-1.5-1.6-1.5-1.6.2-4.2,3.6-7.5,6.8-10.4.9-.8,1.8-1.6,2.6-2.5.9-4.6,2.7-8.4,5.6-11.7-.1-.3-.3-.6-.7-.8-1.1.2-2.2.4-3.3.6-3.5.7-7.1,1.3-10.9,1.3-5,2.6-11.9,3.4-13.8,2.1,0,0-.8-.6-.9-1.3-.1-.7.1-1.5.3-1.9,4.9-6.8,6.8-15.4,5.4-23.6-.1-.7-.4-.9-.8-.9-.6,0-.8.7-.9,1.1-1.5,8.6-3.9,14.9-7.8,20.9-1.3,2-4.9,2.8-8.4,3.5-1.5.3-2.8.5-4.3,1.1-.8.3-1.9,1.1-1.9,2.3-.1,2.5,1.2,4.7,2.5,6.7l.2.2c.3.6,8.6,14.2,8.9,17,.3,2.4-.8,9.8-1.8,12.9-.3,1.1.2,1.2.3,1.2.2,0,.5-.1.9-.4,1.4-1,6.3-8.5,6.7-10.8s-.3-3.8-1-5.3l-9.8-19.4.1-.2c.5-1,1.8-1.6,3.6-1.7h.2c1.6,0,3,.5,4.3,1.1.6.2,1.3.5,1.9.7h.2l.1.2c2.2,5.9,3.2,8.2,8.6,16.9,1.8,2.9,1.8,6.6,0,10.3-2,4.2-4.4,8.2-7.1,12.1-2.2,2.3-5.2,2.5-8.1,2.7-.6,0-1.3.1-1.9.2h-2.8c-8.5,4.5-17.4,7.5-26.6,10.4-1.3.4-2.6.6-4,.6-3.2,0-6.2-1.1-8.3-2.9-2.3-1.8-3.7-4.3-5-6.7-.5-1-1.1-2-1.7-2.9-.7-.9-1.9-1.3-3.6-1.3-.6,0-1.2,0-1.7.1-.5,0-1,.1-1.5.1-.8,0-1.9-.1-2.4-.9l-.9-1.5c-2-3.4-4-6.7-6-10.2-.5-.8-.5-1.8-.2-2.5s.9-1.1,1.7-1.3c3.8-.8,7.1-1.5,10.6-1.8,3.6-.3,6.3.6,8.4,3,1.6,1.8,2.8,3.9,4,5.9,2.2,3.7,1.8,4.8,5.3,8,.1.1,2,1.5,4.2,1.7,3.3.2,8.9-2,12.4-3.7,2.2-1.3,5.2-3.5,5.2-6.6-.4-6.8-5.5-11.7-9.7-14.7-6.6-3.4-11.9-7.6-15.3-11.9-1.6-2.2-2.4-4.9-3.1-7.4-.2-.6-.3-1.2-.5-1.8-.1-.4-.5-.5-.8-.5s-.7.1-.9.3c-1.7,1.5-.7,4.6,0,6.7.1.3.2.6.3.9l.1.3c.5,1.6.8,2.8-.2,3.7-1.5,1.2-3.5,1.8-6.3,1.8-1.2,0-2.4-.1-3.6-.2-.7-.1-1.3-.1-1.9-.1-3.4-.2-6.7-.8-9.8-1.5-3.6-.7-7.4-1.5-11.3-1.5-.9,0-1.7,0-2.5.1-2,.1-4.3.5-6.7.8-3.1.5-6.4,1-9.3,1-4.9,0-8-1.5-9.4-4.6-3.1-7.8-1.5-17.1-.2-23.9,0-.7-.9-1-1.3-1.1-.2-.1-.3-.1-.4-.1-.4,0-.8.2-1,.7-.9,3.3-1.4,6.8-1.9,10.3-.6,4.3-1.3,8.8-2.7,13-2.1,6.4-7.4,14.5-14.6,18.1-5.6,2.9-12,4.4-20.9,5-12,.2-26.8,2-35.5,14.4-.6,1.1-.7,1.4-.9,2.3-.1.4-.1.8.1,1,.3.4.9.3,1.3-.1,8.2-9.2,19.4-13.9,33.3-13.9h2.3c11.2,0,25.2-1.5,33.8-13.2,2.1-2.4,5.3-7.7,5.3-7.7l.2-.3,4.9,3.7-.1.2c0,.1-2.1,5.4-3.4,7.8-1.3,2.6-4.9,9-9,11.3-1,.5-2.2,1.2-3.5,1.9-2.4,1.2-5.3,2.8-8.2,4.4-2.4,1.4-5.4,2.1-8.5,2.1-1.8,0-3.6-.2-5.4-.7-3.3-.6-7.5-1.4-11.4-1.4-3.2,0-5.7.5-7.9,1.5-1.7,1.1-3.4,2.6-5,4.1-1,1-2.1,1.9-3.1,2.8-2.4,1.9-7.4,5.2-12.6,4.9-1.1-.1-2.2-.4-3.2-.6-1.2-.3-2.4-.6-3.5-.6-1.3,0-2.2.4-3,1.3-1.4,1.3-2.4,3-3.3,4.7-1.5,2.5-3,5.1-5.8,6.4-1.6.9-3.4,1.3-5.5,1.3s-4.5-.5-6.6-1c-1.7-.4-3.2-.7-4.8-.8h-.4l.1-.6c.1-.7.3-1.3.4-2,.9-4.4,1.9-8.9,4.8-12.3l.1-.1h.1c1.9-.2,3.9-.6,5.5-2,2-1.8,3.6-4.1,5.1-6.6l.1-.1c.9-.6,1.9-1.1,2.8-1.7,3.8-2.2,7.7-4.5,10.1-8.3.8-1.8,1.7-3.9,2.5-5.9,1.3-3.4,2.5-6.3,3.5-7.4.6-.6,1.2-.9,2.1-1,.4,0,1-.1,1.9-.1,1.7-.1,4.1-.2,6.3-.5,1.4-.2,8.8-2.8,12.5-6.2,1-1,1.5-2.7,1-4.2-.1-.5-.5-1.4-1-2.5-1.1-2.7-2.8-6.9-3.5-10.3-.3-1.5-.5-5.2-.6-9-.1-2.4-.2-4.8-.4-7-.1-1.1-.5-1.1-.7-1.1-.1,0-.3,0-.5.1-4.8,1.2-9.8,2.5-15.1,2.5-1.7,0-3.2-.1-4.8-.4-8.9-1.1-19.6-7-23.5-17.4-3-7.9-2.7-20.1,3.8-27.2,4.9-6,10.8-10.9,16.6-15.7,1.1-.9,2.3-1.9,3.4-2.8,1.2-1,1.7-1.7,1.6-2.7-.2-1.6-1.5-2.9-2.8-3.3-1.4-.4-3-.4-4.3-.4h-2.8c-2.1,0-4.3-.1-6.5-1-.3-.1-.6-.2-.9-.3-6.7-3.1-12.8-10.6-13.7-17.9-.2-3.5.4-6.6,2.2-9.4,4.8,2.6,9,6.8,14.5,8.3,2.1.5,4.2.8,6.4,1.3.3.1.9.1,1.3.2l.6.1c3.4.8,12.6,3.1,16.7,7.6s4.5,12.8.9,17.7c-3.1,4.2-7.7,8.1-12.5,12.1-3,2.5-6,5.1-8.7,7.8-5.7,5.7-7.8,13-5.8,20.2,2.1,6.4,8.5,11.2,15.5,11.7h.7c9.4,0,16.7-4.3,24.4-8.8.7-.4,1.5-.9,2.1-1.3,1.3-.8,4-2.9,6.1-4.5,6.2-4.9,13.6-10.6,20.5-12.2,4.6-1.1,5.4-1.1,10.2-1.6,3.4-.3,6.6-.7,9.5-1.7,6.4-2.2,12-7,17.5-12,7-5.7,13.8-8.1,23.3-8.1,4.1,0,4.7-.5,9.7-5.2,1.1-1,2.4-2.2,4-3.7,5.4-5,12.3-7.1,19-9.2,3.4-1.1,6.9-2.1,10.2-3.6,4.2-1.4,8.1-3.9,11.8-6.3,2.2-1.4,4.5-2.9,6.8-4.1,3.4-1.5,7.5-2.3,11.7-2.3,3.3,0,6.5.5,9.2,1.5,4.2,1.5,6,2.3,11.8,6.3l29.3,24.3.4.4c.5.5,1.2,1.1,1.7,1.7.9.9,17.2,19.9,24,31,2.2,3.7,4,9.4,4.2,12.1,1.3,17.1,6.5,32.5,11.3,45.5.2.5,1.2,1.4,2.3,2.4,1.3,1.1,2.7,2.4,3.6,3.7,1.3,1.8,2.5,3.8,3.6,5.7,2.9,4.9,6,10,11.2,13l4.4,2.2c.7.5.8,1,.7,1.6M568.5,154.4c-1.5-3-3-4.9-4.5-5.6-.4-.2-.9-.3-1.4-.3-1,0-2,.4-2.3,1-1.3,2.1-.1,3.6,1.2,5.4.6.9,1.3,1.8,1.9,3,1.8,3.6,2.7,7.5,4.2,15.3.1.7.6.8.7.8.4,0,.7-.4.9-.9.1-.1,3.1-11-.7-18.7M617.8,246.3c-1.4-.7-2.9-.2-2.9-.2-4.6,1.2-6.9,6-7.2,6.5,0,0-.7,1.3-.3,2,.4.6,1.1.9,3.1,1s5.7-.4,6.7-1.4c1-.9,1.3-3.2,1.3-3.2,0-.4.7-4-.7-4.7M631.6,214.2c-.5-2.3-2.5-6.1-4.3-8s-2.4-2.9-3-3.9-.1-.7-2.3-3.4c-1.9-2.3-3.6-2.1-4.1-2.1,0,0-2-.1-3.5,2.1-.6.8-2,4.2-2,4.2-.7,1.7-1.3,2.2-1.9,4.7-.6,2.4-.4,3.4-.1,4.7.2,1.3.9,1.4,1.4,1.1.5-.3.5-.6,2.1-2.7,1.4-1.8,3.2-2.9,3.9-2.9,2.8-.3,7.6,6,8.6,8.2.9,2,1.1,6.8,1.1,6.8,0,.2-.1,2,1.4,2,1.3,0,1.8-1,2-1.4s.7-1.3,1-3.1c.2-2,.3-4-.3-6.3M337.2,271.9c.6.5,1.4,1.1,2.7,1.1.7,0,1.5-.2,2.2-.6,4.1-2,8.3-9.6,8.4-10,.4-1.2-1-2.3-2.7-3.7l-.2-.2c-.8-.6-2.2-.5-3.1.1-.7.4-1.3.9-2,1.3-2.1,1.4-4.3,2.8-6.6,4.8-.8.7-1.3,2-1.4,3-.1.8.1,1.5.4,1.9.3.2,1.9,2,2.3,2.3M384.9,332.5h2.4v-6.5h6.4v-2.1h-6.4v-4.7h6.6v-2.2h-9.1v15.5h.1ZM410.4,332.2c1-.4,1.8-1,2.6-1.7.7-.7,1.3-1.6,1.7-2.6.4-1,.6-2,.6-3.2,0-1.1-.2-2.2-.6-3.2s-1-1.8-1.7-2.5-1.6-1.3-2.6-1.7c-1-.4-2.1-.6-3.2-.6-1.2,0-2.3.2-3.2.6-1,.4-1.8,1-2.6,1.7-.7.7-1.3,1.6-1.7,2.5-.4,1-.6,2-.6,3.2,0,1.1.2,2.2.6,3.2s1,1.8,1.7,2.6c.7.7,1.6,1.3,2.6,1.7,1,.4,2.1.6,3.2.6s2.2-.2,3.2-.6M404.9,330.1c-.7-.3-1.3-.7-1.8-1.2s-.9-1.1-1.2-1.8c-.3-.7-.4-1.5-.4-2.3s.1-1.6.4-2.3c.3-.7.7-1.3,1.2-1.8s1.1-.9,1.8-1.2c.7-.3,1.4-.4,2.3-.4.8,0,1.5.1,2.2.4s1.3.7,1.8,1.2.9,1.1,1.2,1.8c.3.7.4,1.5.4,2.3s-.1,1.6-.4,2.3c-.3.7-.7,1.3-1.2,1.8s-1.1.9-1.8,1.2c-.7.3-1.4.4-2.2.4-.9.1-1.6-.1-2.3-.4M421.6,332.5h2.4v-6.1h2.1l3.9,6.1h2.8l-4.1-6.3c1-.3,1.7-.9,2.3-1.7.5-.8.8-1.7.8-2.8,0-1.5-.5-2.6-1.4-3.4s-2.2-1.3-3.8-1.3h-5.1v15.5h.1ZM424,324.4v-5.3h2.6c.9,0,1.5.2,2,.7s.7,1.1.7,1.9-.2,1.5-.7,2-1.2.7-2,.7h-2.6ZM451,317l-4.5,12.4-4.5-12.4h-3.3v15.5h2.3v-11.9l4.4,11.9h2.1l4.4-11.9v11.9h2.4v-15.5h-3.3ZM470,332.4c.7-.3,1.4-.7,1.9-1.3.5-.5.9-1.2,1.2-2,.3-.8.4-1.7.4-2.6v-9.5h-2.5v9.5c0,1.3-.3,2.3-.9,3s-1.5,1.1-2.6,1.1-2-.4-2.6-1.1-.9-1.7-.9-3v-9.5h-2.4v9.5c0,1,.1,1.8.4,2.6.3.8.7,1.5,1.2,2s1.2,1,1.9,1.3c.7.3,1.6.5,2.5.5.8-.1,1.6-.2,2.4-.5M480.6,332.5h8.5v-2.2h-6.1v-13.3h-2.4v15.5ZM504.9,332.5h2.6l-5.8-15.5h-2.6l-5.9,15.5h2.6l1.3-3.7h6.5l1.3,3.7ZM500.4,319.5l2.6,7.4h-5.2l2.6-7.4ZM533.3,332.2c1-.4,1.8-1,2.6-1.7.7-.7,1.3-1.6,1.7-2.6s.6-2,.6-3.2c0-1.1-.2-2.2-.6-3.2-.4-1-1-1.8-1.7-2.5s-1.6-1.3-2.6-1.7c-1-.4-2.1-.6-3.2-.6-1.2,0-2.3.2-3.2.6-1,.4-1.8,1-2.6,1.7-.7.7-1.3,1.6-1.7,2.5-.4,1-.6,2-.6,3.2,0,1.1.2,2.2.6,3.2.4,1,1,1.8,1.7,2.6.7.7,1.6,1.3,2.6,1.7,1,.4,2.1.6,3.2.6s2.2-.2,3.2-.6M527.8,330.1c-.7-.3-1.3-.7-1.8-1.2s-.9-1.1-1.2-1.8c-.3-.7-.4-1.5-.4-2.3s.1-1.6.4-2.3c.3-.7.7-1.3,1.2-1.8s1.1-.9,1.8-1.2c.7-.3,1.4-.4,2.3-.4.8,0,1.5.1,2.2.4s1.3.7,1.8,1.2.9,1.1,1.2,1.8c.3.7.4,1.5.4,2.3s-.1,1.6-.4,2.3c-.3.7-.7,1.3-1.2,1.8s-1.1.9-1.8,1.2c-.7.3-1.4.4-2.2.4-.8.1-1.6-.1-2.3-.4M554,317v11.5l-6.9-11.5h-2.7v15.5h2.4v-11.7l7,11.7h2.6v-15.5h-2.4ZM563.7,332.5h9.4v-2.1h-7v-4.9h6.5v-2.1h-6.5v-4.3h6.7v-2.1h-9.1v15.5h0ZM592,332.5h2.4v-13.3h4.6v-2.2h-11.4v2.2h4.4v13.3ZM605.1,332.5h9.4v-2.1h-7v-4.9h6.5v-2.1h-6.5v-4.3h6.7v-2.1h-9.1v15.5h0ZM631.1,332.5h2.6l-5.8-15.5h-2.6l-5.9,15.5h2.6l1.3-3.7h6.5l1.3,3.7ZM626.5,319.5l2.6,7.4h-5.1l2.5-7.4ZM651.8,317l-4.5,12.4-4.5-12.4h-3.3v15.5h2.3v-11.9l4.4,11.9h2.1l4.4-11.9v11.9h2.4v-15.5h-3.3Z" style="fill:#8b8f91;"/></g></svg>